<?xml version="1.0" encoding="UTF-8" standalone="no"?>
<svg
   xmlns:dc="http://purl.org/dc/elements/1.1/"
   xmlns:cc="http://creativecommons.org/ns#"
   xmlns:rdf="http://www.w3.org/1999/02/22-rdf-syntax-ns#"
   xmlns:svg="http://www.w3.org/2000/svg"
   xmlns="http://www.w3.org/2000/svg"
   xmlns:sodipodi="http://sodipodi.sourceforge.net/DTD/sodipodi-0.dtd"
   xmlns:inkscape="http://www.inkscape.org/namespaces/inkscape"
   width="400"
   height="400"
   viewBox="0 0 105.83334 105.83333"
   version="1.1"
   id="svg8"
   inkscape:version="1.0.1 (3bc2e813f5, 2020-09-07)"
   sodipodi:docname="RR_logo_connected.svg">
  <defs
     id="defs2" />
  <sodipodi:namedview
     id="base"
     pagecolor="#ffffff"
     bordercolor="#666666"
     borderopacity="1.0"
     inkscape:pageopacity="0.0"
     inkscape:pageshadow="2"
     inkscape:zoom="1.4"
     inkscape:cx="171.20785"
     inkscape:cy="148.88072"
     inkscape:document-units="mm"
     inkscape:current-layer="g847"
     inkscape:document-rotation="0"
     showgrid="false"
     inkscape:window-width="2560"
     inkscape:window-height="1417"
     inkscape:window-x="-8"
     inkscape:window-y="1110"
     inkscape:window-maximized="1"
     units="px" />
  <metadata
     id="metadata5">
    <rdf:RDF>
      <cc:Work
         rdf:about="">
        <dc:format>image/svg+xml</dc:format>
        <dc:type
           rdf:resource="http://purl.org/dc/dcmitype/StillImage" />
        <dc:title></dc:title>
      </cc:Work>
    </rdf:RDF>
  </metadata>
  <g
     inkscape:label="Layer 1"
     inkscape:groupmode="layer"
     id="layer1"
     transform="translate(-56.828723,-86.235272)">
    <g
       id="g847"
       transform="matrix(0.06614583,0,0,0.06614583,57.291744,86.698293)">
      <g
         id="g843"
         transform="translate(42.000037,297.99961)">
        <path
           transform="translate(196,3)"
           d="m 0,0 h 469 l 30,1 29,3 34,7 30,10 26,11 22,11 13,8 13,9 13,10 14,12 17,17 13,17 11,15 10,18 7,14 8,20 8,28 4,29 1,12 v 28 l -3,27 -3,21 -7,25 -6,16 -7,17 -11,22 -11,17 -10,14 -9,11 -9,10 -7,8 -9,9 -8,7 -13,11 -19,14 -24,15 -14,8 -20,9 -27,11 -21,8 h -2 l 2,11 8,17 10,19 11,23 17,35 15,30 13,28 20,40 13,28 19,38 11,23 12,25 11,23 8,16 16,33 10,20 1,7 -7,6 -2,1 -131,1 h -30 l -29,-1 -16,-4 -9,-4 -11,-8 -9,-12 -9,-17 -34,-68 -10,-19 -70,-140 -10,-19 -53,-106 -5,-9 -4,-2 H 160 l -5,2 -4,8 -8,25 -13,42 -7,24 -8,25 -14,45 -12,39 -12,40 -14,44 -13,43 -10,33 -4,9 -6,10 -10,10 -12,6 -13,3 h -168 l -8,-2 -7,-4 -5,-8 v -14 l 14,-47 9,-30 15,-48 12,-40 12,-39 12,-38 15,-50 13,-41 14,-46 13,-43 15,-49 15,-50 6,-19 7,-9 8,-6 9,-4 4,-1 404,-1 34,-3 31,-8 24,-11 14,-9 14,-11 8,-8 10,-14 8,-16 5,-21 1,-7 v -9 l -3,-17 -4,-12 -9,-14 -11,-12 -12,-9 -10,-6 -21,-8 -24,-4 -512,-1 -9,-3 -7,-6 -4,-9 v -12 l 8,-29 8,-27 12,-41 12,-42 6,-12 5,-5 6,-5 6,-2 z"
           id="path833"
           style="stroke:#ffffff;stroke-width:20;stroke-miterlimit:4;stroke-dasharray:none;stroke-opacity:1" />
        <path
           transform="translate(858,3)"
           d="m 0,0 h 351 l 31,2 25,4 27,6 30,10 23,10 17,8 22,13 19,14 11,9 13,12 9,9 9,11 12,16 13,21 9,19 8,21 7,24 4,25 1,10 v 40 l -3,25 -3,19 -9,31 -10,25 -11,22 -12,19 -12,16 -9,11 -11,12 -18,18 -11,9 -14,11 -15,10 -20,12 -23,12 -19,8 -17,6 -21,7 -31,8 -9,2 3,9 13,27 11,23 16,34 19,39 13,28 16,33 11,23 12,26 17,35 11,23 11,24 8,16 8,17 8,16 12,25 2,6 v 6 l -5,5 -2,1 -149,1 -39,-1 -14,-3 -10,-4 -9,-6 -8,-7 -9,-14 -30,-60 -9,-17 -11,-23 -10,-20 -10,-19 -12,-25 -99,-198 -5,-9 -4,-3 -136,-1 -13,-1 -4,-3 2,-4 15,-9 24,-16 18,-14 10,-8 17,-16 20,-20 9,-11 11,-15 9,-14 10,-17 12,-25 4,-5 2,-1 133,-1 26,-1 18,-2 20,-5 18,-6 17,-8 16,-10 11,-9 4,-2 v -2 l 5,-5 6,-7 8,-14 4,-8 4,-16 2,-11 v -14 l -4,-20 -8,-16 -9,-11 -11,-10 -13,-8 -18,-8 -11,-3 -19,-3 -181,-1 -4,-4 -5,-12 -4,-14 -8,-20 L 116,123 103,101 94,89 86,79 75,66 66,56 64,55 V 53 L 60,51 52,43 38,32 30,26 15,16 6,11 -4,6 -5,2 Z"
           id="path835"
           style="stroke:#ffffff;stroke-width:20;stroke-miterlimit:4;stroke-dasharray:none;stroke-opacity:1" />
      </g>
      <ellipse
         style="opacity:1;fill:#00ff00;fill-opacity:0.99598396;stroke:none;stroke-width:23.8096;stroke-dashoffset:2.64567"
         id="path860"
         cx="293"
         cy="397.28571"
         rx="238.09525"
         ry="238.09523" />
    </g>
  </g>
</svg>
